<mxfile host="app.diagrams.net" modified="2021-06-28T13:42:52.775Z" agent="5.0 (Macintosh; Intel Mac OS X 10_15_7) AppleWebKit/537.36 (KHTML, like Gecko) Chrome/91.0.4472.114 Safari/537.36" etag="fm8Cdc9rc3AyhA8unjKH" version="14.8.0" type="github">
  <diagram id="CmA8ZnnNOrYpRZ9zoarE" name="Page-1">
    <mxGraphModel dx="786" dy="449" grid="1" gridSize="10" guides="1" tooltips="1" connect="1" arrows="1" fold="1" page="1" pageScale="1" pageWidth="850" pageHeight="1100" math="0" shadow="0">
      <root>
        <mxCell id="0" />
        <mxCell id="1" parent="0" />
        <mxCell id="HJBp2s6bBe_l8Woz9fxp-1" value="&lt;b&gt;UC&lt;/b&gt;" style="shape=umlFrame;whiteSpace=wrap;html=1;" vertex="1" parent="1">
          <mxGeometry x="30" y="10" width="760" height="450" as="geometry" />
        </mxCell>
        <mxCell id="HJBp2s6bBe_l8Woz9fxp-2" value="Usuário" style="shape=umlActor;verticalLabelPosition=bottom;verticalAlign=top;html=1;" vertex="1" parent="1">
          <mxGeometry x="660" y="200" width="30" height="60" as="geometry" />
        </mxCell>
        <mxCell id="HJBp2s6bBe_l8Woz9fxp-3" value="Editar cadastro" style="ellipse;whiteSpace=wrap;html=1;" vertex="1" parent="1">
          <mxGeometry x="260" y="20" width="140" height="70" as="geometry" />
        </mxCell>
        <mxCell id="HJBp2s6bBe_l8Woz9fxp-4" value="Fazer cadastro" style="ellipse;whiteSpace=wrap;html=1;" vertex="1" parent="1">
          <mxGeometry x="100" y="90" width="140" height="70" as="geometry" />
        </mxCell>
        <mxCell id="HJBp2s6bBe_l8Woz9fxp-5" value="Deletar usuário" style="ellipse;whiteSpace=wrap;html=1;" vertex="1" parent="1">
          <mxGeometry x="220" y="380" width="140" height="70" as="geometry" />
        </mxCell>
        <mxCell id="HJBp2s6bBe_l8Woz9fxp-6" value="Fazer login" style="ellipse;whiteSpace=wrap;html=1;" vertex="1" parent="1">
          <mxGeometry x="50" y="200" width="140" height="70" as="geometry" />
        </mxCell>
        <mxCell id="HJBp2s6bBe_l8Woz9fxp-7" value="Autenticar" style="ellipse;whiteSpace=wrap;html=1;" vertex="1" parent="1">
          <mxGeometry x="70" y="330" width="140" height="70" as="geometry" />
        </mxCell>
      </root>
    </mxGraphModel>
  </diagram>
</mxfile>
